<svg data-v-423bf9ae="" xmlns="http://www.w3.org/2000/svg" viewBox="0 0 398 90" class="iconLeft"><!----><!----><!----><g data-v-423bf9ae="" id="554f4884-0196-45bb-a492-ad401898f88c" fill="#ffffff" transform="matrix(5.519053917976715,0,0,5.519053917976715,211.09146860044987,16.60052617187181)"><path d="M2.67 5.24L2.67 5.24Q2.94 5.35 3.42 5.54Q3.91 5.73 4.38 6.06Q4.84 6.40 5.17 6.89Q5.50 7.38 5.46 8.09L5.46 8.09Q5.42 8.82 5.17 9.32Q4.91 9.81 4.51 10.11Q4.12 10.40 3.62 10.51Q3.12 10.61 2.58 10.57L2.58 10.57Q2.13 10.54 1.52 10.42Q0.91 10.30 0.29 9.98L0.29 9.98L0.97 7.85Q1.16 7.97 1.44 8.06Q1.72 8.15 2.02 8.22Q2.31 8.29 2.60 8.33Q2.90 8.37 3.12 8.37L3.12 8.37Q3.28 8.12 3.21 7.80L3.21 7.80Q3.02 7.71 2.74 7.59Q2.45 7.48 2.14 7.31Q1.82 7.14 1.51 6.90Q1.19 6.66 0.95 6.36Q0.71 6.05 0.58 5.65Q0.45 5.25 0.49 4.75L0.49 4.75Q0.53 4.31 0.65 3.98Q0.77 3.64 0.94 3.40Q1.11 3.16 1.29 3.00Q1.48 2.83 1.67 2.73L1.67 2.73Q2.13 2.45 2.67 2.40Q3.22 2.35 3.72 2.43Q4.21 2.51 4.61 2.63Q5.00 2.76 5.18 2.84L5.18 2.84L4.31 4.91Q4.20 4.87 4.00 4.82Q3.81 4.76 3.60 4.72Q3.39 4.68 3.18 4.64Q2.97 4.61 2.84 4.61L2.84 4.61Q2.79 4.61 2.73 4.68Q2.67 4.76 2.64 4.87Q2.60 4.97 2.60 5.08Q2.60 5.18 2.67 5.24ZM9.31 2.38L9.31 2.38Q9.94 2.38 10.47 2.55Q11.00 2.73 11.39 3.07Q11.77 3.42 11.99 3.92Q12.21 4.42 12.21 5.08L12.21 5.08L12.21 7.85Q12.21 8.51 11.99 9.02Q11.77 9.52 11.40 9.86Q11.02 10.21 10.49 10.39Q9.95 10.57 9.32 10.57L9.32 10.57Q8.68 10.57 8.15 10.39Q7.62 10.21 7.23 9.86Q6.85 9.52 6.63 9.02Q6.41 8.51 6.41 7.85L6.41 7.85L6.41 5.08Q6.41 4.42 6.63 3.92Q6.85 3.42 7.23 3.07Q7.62 2.73 8.15 2.55Q8.68 2.38 9.31 2.38ZM10.00 7.85L10.00 5.05Q10.00 4.80 9.79 4.67Q9.58 4.54 9.32 4.54Q9.06 4.54 8.85 4.67Q8.64 4.80 8.64 5.05L8.64 5.05L8.64 7.85Q8.64 8.11 8.84 8.24Q9.04 8.37 9.30 8.37Q9.55 8.37 9.77 8.25Q9.98 8.12 10.00 7.85L10.00 7.85ZM13.50 2.42L13.66 2.42L14.63 3.07Q14.97 2.74 15.41 2.58Q15.85 2.42 16.32 2.42L16.32 2.42Q17.42 2.42 18.16 3.15L18.16 3.15Q18.56 2.77 19.07 2.59Q19.59 2.41 20.12 2.41L20.12 2.41Q20.68 2.41 21.18 2.58Q21.67 2.74 22.04 3.07Q22.41 3.40 22.62 3.89Q22.83 4.38 22.83 5.01L22.83 5.01L22.83 10.37L22.96 10.50L20.45 10.50L20.58 10.37L20.58 4.98Q20.58 4.76 20.38 4.65Q20.17 4.54 19.94 4.54Q19.70 4.54 19.50 4.65Q19.29 4.76 19.29 4.98L19.29 4.98L19.29 10.37L19.42 10.50L16.91 10.50L17.04 10.37L17.04 4.98Q17.04 4.76 16.84 4.65Q16.63 4.54 16.39 4.54Q16.16 4.54 15.95 4.65Q15.75 4.76 15.75 4.98L15.75 4.98L15.75 10.37L15.88 10.50L13.37 10.50L13.50 10.37L13.50 2.42ZM26.47 2.42L27.38 2.42Q28.07 2.42 28.57 2.61Q29.06 2.80 29.39 3.15Q29.71 3.50 29.86 4.00Q30.02 4.51 30.02 5.11L30.02 5.11L30.02 7.80Q30.02 8.54 29.83 9.05Q29.64 9.56 29.29 9.88Q28.95 10.21 28.45 10.35Q27.96 10.50 27.33 10.50L27.33 10.50L24.08 10.50L24.22 10.37L24.22 0.36L24.09 0.20L26.60 0.20L26.47 0.38L26.47 2.42ZM27.79 7.91L27.79 5.01Q27.79 4.83 27.66 4.70Q27.54 4.58 27.36 4.58L27.36 4.58L26.46 4.58L26.46 8.36L27.36 8.36Q27.54 8.36 27.66 8.23Q27.79 8.11 27.79 7.91L27.79 7.91ZM33.78 10.50L33.78 10.50L31.23 10.50L31.36 10.35L31.36-0.11L31.23-0.29L33.77-0.29L33.64-0.11L33.64 10.33L33.64 10.33L33.78 10.50Z"></path></g><!----><g data-v-423bf9ae="" id="d1956789-ddd1-4f20-8f18-08ee6d9b552c" transform="matrix(2.2107553481573103,0,0,2.2107553481573103,-14.117589302493002,-64.89276664238886)" stroke="none" fill="#FF7E33"><g clip-rule="evenodd"><path d="M8.259 70.355c-4.845-4.644 1.038-5.805 4.342-5.425 22.102.469 44.272.502 66.363-.447.402-.223 19.222-3.784 13.552 3.315-4.767 2.143-13.808.804-18.642.893-21.711 1.988-43.948-.378-65.615 1.664zM14.533 62.765c-1.072-.949-2.992-2.21-1.853-3.728.089-8.841-3.304-22.783 6.742-27.126 16.019-2.668 34.482-1.987 50.802-1.987 5.425-.882 11.665.246 15.315 4.543 2.009 3.985 4.956 24.301 1.786 26.043-3.985.458-1.853-4.019-2.869-5.034-.424-13.641 2.4-25.306-15.784-21.209-14.534-.971-31.658-.882-46.114 1.161-11.698 2.924-1.551 26.756-8.025 27.337z"></path><path d="M26.008 45.708c-7.2-1.619-11.565-9.589-2.322-4.108 4.633 1.328 7.312-.435 9.567-4.465 4.086-.123 2.612 3.706 6.318 4.074 5.559 3.572 9.433-4.61 12.871-4.342 4.8 3.874 7.647 4.532 12.793 1.395 3.483-4.074 4.543-.112 8.45 2.255 1.92.346 11.676-1.072 7.624 3.516-2.813 1.273-7.546-.045-10.102-1.351-3.215-2.456-2.277-1.663-5.66-.234-5.235 3.851-7.993-.279-12.949-.848-4.845 4.298-12.067 5.291-17.213.927h-.536c-3.058 2.757-4.822 3.069-8.841 3.181z"></path></g></g><!----></svg>